<?xml version="1.0" encoding="UTF-8" standalone="no"?>
<!-- Created with Inkscape (http://www.inkscape.org/) -->

<svg
   width="20.479156mm"
   height="19.211025mm"
   viewBox="0 0 20.479156 19.211025"
   version="1.1"
   id="svg1"
   inkscape:version="1.3.2 (091e20ef0f, 2023-11-25)"
   sodipodi:docname="logo-inverted.svg"
   xmlns:inkscape="http://www.inkscape.org/namespaces/inkscape"
   xmlns:sodipodi="http://sodipodi.sourceforge.net/DTD/sodipodi-0.dtd"
   xmlns="http://www.w3.org/2000/svg"
   xmlns:svg="http://www.w3.org/2000/svg">
  <sodipodi:namedview
     id="namedview1"
     pagecolor="#ffffff"
     bordercolor="#666666"
     borderopacity="1.0"
     inkscape:showpageshadow="2"
     inkscape:pageopacity="0.0"
     inkscape:pagecheckerboard="0"
     inkscape:deskcolor="#d1d1d1"
     inkscape:document-units="mm"
     inkscape:zoom="5.6568542"
     inkscape:cx="4.331029"
     inkscape:cy="23.157747"
     inkscape:window-width="1680"
     inkscape:window-height="977"
     inkscape:window-x="0"
     inkscape:window-y="0"
     inkscape:window-maximized="1"
     inkscape:current-layer="layer1" />
  <defs
     id="defs1" />
  <g
     inkscape:label="Layer 1"
     inkscape:groupmode="layer"
     id="layer1"
     transform="translate(-69.922499,-55.468777)">
    <path
       style="font-weight:bold;font-size:8.46667px;line-height:0.85;font-family:Comfortaa;-inkscape-font-specification:'Comfortaa Bold';text-align:center;text-anchor:middle;fill:#f2f2f2;stroke-width:0.264583"
       d="m 74.377473,64.662607 c 1.219201,0 2.379134,-0.635 2.379134,-1.913467 0,-1.117601 -0.787486,-2.0852 -2.1336,-2.221515 -1.329354,-0.134618 -1.625601,-0.555553 -1.625601,-1.063553 0,-0.668867 0.635,-0.7874 1.4732,-0.778934 0.702734,0.0085 1.126068,0.296334 1.405468,0.778934 0.127,0.220133 0.414867,0.313267 0.626533,0.1778 0.194734,-0.127 0.2286,-0.3556 0.06773,-0.6096 -0.431801,-0.685801 -1.049867,-1.143001 -2.074335,-1.143001 -1.329267,0 -2.3622,0.440267 -2.3622,1.549401 0,1.016001 0.846667,1.698554 2.252134,1.83402 1.0668,0.110067 1.507067,0.900714 1.507067,1.501848 0,0.7112 -0.7112,1.0922 -1.515534,1.0922 -0.7366,0 -1.397,-0.364067 -1.591734,-0.7874 -0.1016,-0.211667 -0.321733,-0.3302 -0.524933,-0.287867 -0.287867,0.05927 -0.414867,0.287867 -0.304801,0.524934 0.338667,0.804333 1.337734,1.3462 2.421468,1.3462 z m 4.165599,-0.08467 h 3.826935 c 0.254,0 0.4318,-0.169334 0.4318,-0.414867 0,-0.237067 -0.1778,-0.397934 -0.4318,-0.397934 h -3.386668 v -2.116663 -0.812801 -2.0574 h 3.386668 c 0.254,0 0.4318,-0.160867 0.4318,-0.397934 0,-0.245533 -0.1778,-0.414867 -0.4318,-0.414867 h -3.826935 c -0.254,0 -0.440266,0.186267 -0.440266,0.440267 v 5.731936 c 0,0.254 0.186266,0.440267 0.440266,0.440267 z m 5.926675,0 c 0.254,0 0.440267,-0.186267 0.440267,-0.440267 v -2.736583 l 0.538031,-0.112448 h 0.1524 l 2.00197,3.077635 c 0.09313,0.143933 0.220134,0.211667 0.381,0.211667 0.364067,0 0.541867,-0.347134 0.338667,-0.677334 l -1.824567,-2.777333 c 0.694266,-0.313267 1.6637,-0.668602 1.6637,-1.481402 0,-1.227667 -0.897467,-1.676401 -2.167467,-1.676401 h -1.524001 c -0.254,0 -0.440267,0.186267 -0.440267,0.440267 v 5.731936 c 0,0.254 0.186267,0.440267 0.440267,0.440267 z m 0.440267,-3.890431 v -1.909234 h 1.083734 c 0.770467,0 1.3208,0.118533 1.3208,0.8636 0,0.6858 -0.550333,1.045634 -1.3208,1.045634 z"
       id="text1"
       aria-label="SER"
       sodipodi:nodetypes="ssssccccsscsscccsscsssccccssssssscssccccsccsssssssccsssc" />
    <path
       style="fill:none;stroke:#b69e8d;stroke-width:0.7;stroke-dasharray:none;paint-order:stroke fill markers;stroke-opacity:1"
       id="path3"
       sodipodi:type="arc"
       sodipodi:cx="80.162079"
       sodipodi:cy="58.958038"
       sodipodi:rx="9.8895779"
       sodipodi:ry="2.3179009"
       sodipodi:start="0"
       sodipodi:end="3.1415927"
       sodipodi:arc-type="arc"
       d="m 90.051657,58.958038 a 9.8895779,2.3179009 0 0 1 -4.944789,2.007361 9.8895779,2.3179009 0 0 1 -9.889578,0 9.8895779,2.3179009 0 0 1 -4.944789,-2.007361"
       sodipodi:open="true" />
    <path
       id="path2"
       style="fill:none;stroke:#b69e8d;stroke-width:0.699999;paint-order:stroke fill markers;stroke-opacity:1"
       d="m 80.161855,55.818776 c -5.462031,6e-6 -9.889752,0.78753 -9.889355,1.758942 V 74.329803 H 90.051658 V 57.577718 c 3.98e-4,-0.971444 -4.427598,-1.75898 -9.889803,-1.758942 z"
       sodipodi:nodetypes="cccccc" />
    <path
       style="font-size:11.2889px;line-height:1.25;font-family:Comfortaa;-inkscape-font-specification:Comfortaa;fill:#f2f2f2;stroke-width:0.264583"
       d="m 77.06327,71.307264 c 0.259644,0 0.440267,-0.191911 0.440267,-0.440267 V 69.09464 h 1.772357 c 0.237067,0 0.440267,-0.191912 0.440267,-0.440268 0,-0.237066 -0.2032,-0.440267 -0.440267,-0.440267 h -1.772357 v -1.772357 c 0,-0.237067 -0.180623,-0.428978 -0.440267,-0.428978 -0.237067,0 -0.428979,0.191911 -0.428979,0.428978 v 1.772357 h -1.772357 c -0.248356,0 -0.428978,0.191912 -0.428978,0.440267 0,0.248356 0.180622,0.440268 0.428978,0.440268 h 1.772357 v 1.772357 c 0,0.248356 0.180623,0.440267 0.428979,0.440267 z m 6.175038,0 c 0.259645,0 0.440267,-0.191911 0.440267,-0.440267 V 69.09464 h 1.772357 c 0.237067,0 0.440268,-0.191912 0.440268,-0.440268 0,-0.237066 -0.203201,-0.440267 -0.440268,-0.440267 h -1.772357 v -1.772357 c 0,-0.237067 -0.180622,-0.428978 -0.440267,-0.428978 -0.237067,0 -0.428978,0.191911 -0.428978,0.428978 v 1.772357 h -1.772358 c -0.248355,0 -0.428978,0.191912 -0.428978,0.440267 0,0.248356 0.180623,0.440268 0.428978,0.440268 h 1.772358 v 1.772357 c 0,0.248356 0.180622,0.440267 0.428978,0.440267 z"
       id="text7"
       aria-label="++" />
  </g>
</svg>
